<mxfile host="app.diagrams.net" modified="2021-12-14T21:23:19.515Z" agent="5.0 (Windows NT 10.0; Win64; x64) AppleWebKit/537.36 (KHTML, like Gecko) Chrome/96.0.4664.93 Safari/537.36" etag="SCsZ0uVJFzX7ZpHhQwNW" version="15.9.1" type="github">
  <diagram id="t17-Qg_j4giSJlyN2eTZ" name="Page-1">
    <mxGraphModel dx="1185" dy="635" grid="1" gridSize="10" guides="1" tooltips="1" connect="1" arrows="1" fold="1" page="1" pageScale="1" pageWidth="1169" pageHeight="827" math="0" shadow="0">
      <root>
        <mxCell id="0" />
        <mxCell id="1" parent="0" />
        <mxCell id="rjnUexd31WghPcECbCWM-12" style="edgeStyle=orthogonalEdgeStyle;rounded=0;orthogonalLoop=1;jettySize=auto;html=1;entryX=0.5;entryY=1;entryDx=0;entryDy=0;endArrow=none;endFill=0;" edge="1" parent="1" source="rjnUexd31WghPcECbCWM-1" target="rjnUexd31WghPcECbCWM-2">
          <mxGeometry relative="1" as="geometry">
            <Array as="points">
              <mxPoint x="260" y="270" />
            </Array>
          </mxGeometry>
        </mxCell>
        <mxCell id="rjnUexd31WghPcECbCWM-13" style="edgeStyle=orthogonalEdgeStyle;rounded=0;orthogonalLoop=1;jettySize=auto;html=1;entryX=0.5;entryY=1;entryDx=0;entryDy=0;endArrow=none;endFill=0;" edge="1" parent="1" source="rjnUexd31WghPcECbCWM-1" target="rjnUexd31WghPcECbCWM-3">
          <mxGeometry relative="1" as="geometry" />
        </mxCell>
        <mxCell id="rjnUexd31WghPcECbCWM-14" style="edgeStyle=orthogonalEdgeStyle;rounded=0;orthogonalLoop=1;jettySize=auto;html=1;entryX=0.5;entryY=1;entryDx=0;entryDy=0;endArrow=none;endFill=0;" edge="1" parent="1" source="rjnUexd31WghPcECbCWM-1" target="rjnUexd31WghPcECbCWM-7">
          <mxGeometry relative="1" as="geometry" />
        </mxCell>
        <mxCell id="rjnUexd31WghPcECbCWM-15" style="edgeStyle=orthogonalEdgeStyle;rounded=0;orthogonalLoop=1;jettySize=auto;html=1;entryX=0.5;entryY=1;entryDx=0;entryDy=0;endArrow=none;endFill=0;" edge="1" parent="1" source="rjnUexd31WghPcECbCWM-1" target="rjnUexd31WghPcECbCWM-8">
          <mxGeometry relative="1" as="geometry">
            <Array as="points">
              <mxPoint x="170" y="270" />
              <mxPoint x="170" y="380" />
              <mxPoint x="260" y="380" />
            </Array>
          </mxGeometry>
        </mxCell>
        <mxCell id="rjnUexd31WghPcECbCWM-16" style="edgeStyle=orthogonalEdgeStyle;rounded=0;orthogonalLoop=1;jettySize=auto;html=1;entryX=0.5;entryY=1;entryDx=0;entryDy=0;endArrow=none;endFill=0;" edge="1" parent="1" source="rjnUexd31WghPcECbCWM-1" target="rjnUexd31WghPcECbCWM-9">
          <mxGeometry relative="1" as="geometry">
            <Array as="points">
              <mxPoint x="170" y="270" />
              <mxPoint x="170" y="380" />
              <mxPoint x="390" y="380" />
            </Array>
          </mxGeometry>
        </mxCell>
        <mxCell id="rjnUexd31WghPcECbCWM-17" style="edgeStyle=orthogonalEdgeStyle;rounded=0;orthogonalLoop=1;jettySize=auto;html=1;entryX=0.5;entryY=1;entryDx=0;entryDy=0;endArrow=none;endFill=0;" edge="1" parent="1" source="rjnUexd31WghPcECbCWM-1" target="rjnUexd31WghPcECbCWM-10">
          <mxGeometry relative="1" as="geometry">
            <Array as="points">
              <mxPoint x="170" y="270" />
              <mxPoint x="170" y="380" />
              <mxPoint x="520" y="380" />
            </Array>
          </mxGeometry>
        </mxCell>
        <mxCell id="rjnUexd31WghPcECbCWM-18" style="edgeStyle=orthogonalEdgeStyle;rounded=0;orthogonalLoop=1;jettySize=auto;html=1;entryX=0.5;entryY=1;entryDx=0;entryDy=0;endArrow=none;endFill=0;" edge="1" parent="1" source="rjnUexd31WghPcECbCWM-1" target="rjnUexd31WghPcECbCWM-11">
          <mxGeometry relative="1" as="geometry">
            <Array as="points">
              <mxPoint x="170" y="270" />
              <mxPoint x="170" y="380" />
              <mxPoint x="650" y="380" />
            </Array>
          </mxGeometry>
        </mxCell>
        <mxCell id="rjnUexd31WghPcECbCWM-1" value="Корпоративный &lt;br&gt;пользователь" style="shape=umlActor;verticalLabelPosition=bottom;verticalAlign=top;html=1;outlineConnect=0;" vertex="1" parent="1">
          <mxGeometry x="80" y="240" width="30" height="60" as="geometry" />
        </mxCell>
        <mxCell id="rjnUexd31WghPcECbCWM-5" style="edgeStyle=orthogonalEdgeStyle;rounded=0;orthogonalLoop=1;jettySize=auto;html=1;entryX=0.5;entryY=1;entryDx=0;entryDy=0;" edge="1" parent="1" source="rjnUexd31WghPcECbCWM-2" target="rjnUexd31WghPcECbCWM-4">
          <mxGeometry relative="1" as="geometry" />
        </mxCell>
        <mxCell id="rjnUexd31WghPcECbCWM-6" value="&amp;lt;&amp;lt;include&amp;gt;&amp;gt;" style="edgeLabel;html=1;align=center;verticalAlign=middle;resizable=0;points=[];" vertex="1" connectable="0" parent="rjnUexd31WghPcECbCWM-5">
          <mxGeometry x="-0.1933" y="-1" relative="1" as="geometry">
            <mxPoint as="offset" />
          </mxGeometry>
        </mxCell>
        <mxCell id="rjnUexd31WghPcECbCWM-2" value="Регистрация" style="ellipse;whiteSpace=wrap;html=1;" vertex="1" parent="1">
          <mxGeometry x="200" y="170" width="120" height="70" as="geometry" />
        </mxCell>
        <mxCell id="rjnUexd31WghPcECbCWM-3" value="Авторизация" style="ellipse;whiteSpace=wrap;html=1;" vertex="1" parent="1">
          <mxGeometry x="330" y="170" width="120" height="70" as="geometry" />
        </mxCell>
        <mxCell id="rjnUexd31WghPcECbCWM-4" value="Прикрепление документов" style="ellipse;whiteSpace=wrap;html=1;" vertex="1" parent="1">
          <mxGeometry x="200" y="40" width="120" height="70" as="geometry" />
        </mxCell>
        <mxCell id="rjnUexd31WghPcECbCWM-7" value="Восстановление пароля" style="ellipse;whiteSpace=wrap;html=1;" vertex="1" parent="1">
          <mxGeometry x="460" y="170" width="120" height="70" as="geometry" />
        </mxCell>
        <mxCell id="rjnUexd31WghPcECbCWM-8" value="Добавление автобуса в парк" style="ellipse;whiteSpace=wrap;html=1;" vertex="1" parent="1">
          <mxGeometry x="200" y="290" width="120" height="70" as="geometry" />
        </mxCell>
        <mxCell id="rjnUexd31WghPcECbCWM-9" value="Добавление маршрута" style="ellipse;whiteSpace=wrap;html=1;" vertex="1" parent="1">
          <mxGeometry x="330" y="290" width="120" height="70" as="geometry" />
        </mxCell>
        <mxCell id="rjnUexd31WghPcECbCWM-10" value="Регистрация водителя" style="ellipse;whiteSpace=wrap;html=1;" vertex="1" parent="1">
          <mxGeometry x="460" y="290" width="120" height="70" as="geometry" />
        </mxCell>
        <mxCell id="rjnUexd31WghPcECbCWM-11" value="Регистрация пассажиров на рейс" style="ellipse;whiteSpace=wrap;html=1;" vertex="1" parent="1">
          <mxGeometry x="590" y="290" width="120" height="70" as="geometry" />
        </mxCell>
      </root>
    </mxGraphModel>
  </diagram>
</mxfile>
